<svg xmlns="http://www.w3.org/2000/svg" xmlns:svg="http://www.w3.org/2000/svg" xmlns:xlink="http://www.w3.org/1999/xlink" id="svg2" width="550" height="250" version="1.0"><defs id="defs4"><linearGradient id="linearGradient3177"><stop style="stop-color:#fc0;stop-opacity:1" id="stop3179" offset="0"/><stop style="stop-color:#fc0;stop-opacity:0" id="stop3181" offset="1"/></linearGradient><linearGradient id="linearGradient3217"><stop style="stop-color:#524f4a;stop-opacity:.56862748" id="stop3219" offset="0"/><stop style="stop-color:#000;stop-opacity:.55696201" id="stop3221" offset="1"/></linearGradient><linearGradient id="linearGradient3209"><stop style="stop-color:#ffff71;stop-opacity:1" id="stop3211" offset="0"/><stop style="stop-color:#ffff71;stop-opacity:.01898734" id="stop3213" offset="1"/></linearGradient><linearGradient id="linearGradient3201"><stop style="stop-color:#ffff45;stop-opacity:1" id="stop3203" offset="0"/><stop style="stop-color:#ffc73f;stop-opacity:0" id="stop3205" offset="1"/></linearGradient><radialGradient id="radialGradient3220" cx="200" cy="97.906" r="197.219" fx="200" fy="97.906" gradientTransform="matrix(1,0,0,-0.5065758,-441.94172,359.59359)" gradientUnits="userSpaceOnUse" xlink:href="#linearGradient3209"/><radialGradient id="radialGradient3184" cx="200.745" cy="192.386" r="199.944" fx="200.745" fy="192.386" gradientTransform="matrix(0.8019795,1.0609577e-2,-2.801742e-3,0.2117844,40.170736,3.4178399)" gradientUnits="userSpaceOnUse" xlink:href="#linearGradient3209"/><radialGradient id="radialGradient3204" cx="275" cy="128.75" r="270" fx="275" fy="128.75" gradientTransform="matrix(1,0,0,0.4675926,0,109.54745)" gradientUnits="userSpaceOnUse" xlink:href="#linearGradient3209"/></defs><metadata id="metadata7"/><g id="layer1"><path style="opacity:1;fill:#ffffb0;fill-opacity:1;stroke:#707070;stroke-width:3;stroke-linecap:round;stroke-linejoin:round;stroke-miterlimit:4;stroke-dasharray:none;stroke-dashoffset:0;stroke-opacity:.66274509999999998" id="rect3191" d="M 15,3.5 C 9.46,3.5 5,7.96 5,13.5 L 5,253.5 C 5,254.36562 5.1076202,255.2 5.3125,256 L 544.6875,256 C 544.89238,255.2 545,254.36563 545,253.5 L 545,13.5 C 545,7.96 540.54,3.5 535,3.5 L 15,3.5 z"/><path id="path3196" d="M 15,43.5 C 9.46,43.5 5,47.96 5,53.5 L 5,293.5 C 5,294.36562 5.1076202,295.2 5.3125,296 L 544.6875,296 C 544.89238,295.2 545,294.36563 545,293.5 L 545,53.5 C 545,47.96 540.54,43.5 535,43.5 L 15,43.5 z" style="opacity:1;fill:url(#radialGradient3204);fill-opacity:1;stroke:none;stroke-width:3;stroke-linecap:round;stroke-linejoin:round;stroke-miterlimit:4;stroke-dasharray:none;stroke-dashoffset:0;stroke-opacity:.6627451"/></g></svg>