<svg xmlns="http://www.w3.org/2000/svg" xmlns:svg="http://www.w3.org/2000/svg" xmlns:xlink="http://www.w3.org/1999/xlink" id="svg2" width="400" height="200" version="1.0"><defs id="defs4"><linearGradient id="linearGradient3177"><stop style="stop-color:#fc0;stop-opacity:1" id="stop3179" offset="0"/><stop style="stop-color:#fc0;stop-opacity:0" id="stop3181" offset="1"/></linearGradient><linearGradient id="linearGradient3217"><stop style="stop-color:#524f4a;stop-opacity:.56862748" id="stop3219" offset="0"/><stop style="stop-color:#000;stop-opacity:.55696201" id="stop3221" offset="1"/></linearGradient><linearGradient id="linearGradient3209"><stop style="stop-color:#ffff5a;stop-opacity:.77848101" id="stop3211" offset="0"/><stop style="stop-color:#ffff71;stop-opacity:.09493671" id="stop3213" offset="1"/></linearGradient><linearGradient id="linearGradient3201"><stop style="stop-color:#ffff45;stop-opacity:1" id="stop3203" offset="0"/><stop style="stop-color:#ffc73f;stop-opacity:0" id="stop3205" offset="1"/></linearGradient><radialGradient id="radialGradient3220" cx="200" cy="97.906" r="197.219" fx="200" fy="97.906" gradientTransform="matrix(1,0,0,0.5065758,0.707107,48.309311)" gradientUnits="userSpaceOnUse" xlink:href="#linearGradient3209"/></defs><metadata id="metadata7"/><g id="layer1"><path style="opacity:.85;fill:#ffff9f;fill-opacity:1;stroke:#707070;stroke-width:2.14898443000000006;stroke-linecap:round;stroke-linejoin:round;stroke-miterlimit:4;stroke-dasharray:none;stroke-dashoffset:0;stroke-opacity:.66396759999999999" id="rect2431" d="M 3.4883568,-2 L 3.4883568,192.8125 C 3.4883568,195.58233 5.7457498,197.81249 8.5508568,197.8125 L 392.86336,197.8125 C 395.66847,197.8125 397.92584,195.58233 397.92586,192.8125 L 397.92586,-2 L 3.4883568,-2 z"/><path id="path3212" d="M 3.488357,-2 L 3.488357,192.8125 C 3.488357,195.58233 5.74575,197.81249 8.550857,197.8125 L 392.86336,197.8125 C 395.66847,197.8125 397.92584,195.58233 397.92586,192.8125 L 397.92586,-2 L 3.488357,-2 z" style="opacity:.9;fill:url(#radialGradient3220);fill-opacity:1;stroke:none;stroke-width:2.14898443;stroke-linecap:round;stroke-linejoin:round;stroke-miterlimit:4;stroke-dasharray:none;stroke-dashoffset:0;stroke-opacity:.6639676"/><g id="g3850" style="opacity:.75"><path id="path2405" d="M 301.22749,105.60125 A 102.17693,28.637823 0 1 1 96.873619,105.60125 A 102.17693,28.637823 0 1 1 301.22749,105.60125 z" transform="matrix(7.5738297e-2,0,0,0.2538936,371.78382,160.62255)" style="fill:#fff;fill-opacity:1;stroke:#000;stroke-width:2;stroke-linecap:round;stroke-linejoin:round;stroke-miterlimit:4;stroke-dasharray:none;stroke-dashoffset:0;stroke-opacity:1"/><path style="fill:#ff3700;fill-opacity:1;stroke:snow;stroke-width:2;stroke-linecap:round;stroke-linejoin:round;stroke-miterlimit:4;stroke-dasharray:none;stroke-dashoffset:0;stroke-opacity:1" id="path3181" d="M 301.22749,105.60125 A 102.17693,28.637823 0 1 1 96.873619,105.60125 A 102.17693,28.637823 0 1 1 301.22749,105.60125 z" transform="matrix(6.533252e-2,0,0,0.2190108,373.85512,164.30621)"/><g id="g3208" transform="matrix(1.3015021,0,0,1.3015021,-154.07486,176.24727)"><path style="fill:none;fill-rule:evenodd;stroke:#fff;stroke-width:1px;stroke-linecap:butt;stroke-linejoin:miter;stroke-opacity:1" id="path3204" d="M 417.99999,6.500005 L 413.49999,10.750005"/><path id="path3206" d="M 413.62499,6.375005 L 417.87499,10.875005" style="fill:none;fill-rule:evenodd;stroke:#fff;stroke-width:1px;stroke-linecap:butt;stroke-linejoin:miter;stroke-opacity:1"/></g></g></g></svg>