<svg xmlns="http://www.w3.org/2000/svg" xmlns:svg="http://www.w3.org/2000/svg" xmlns:xlink="http://www.w3.org/1999/xlink" id="svg2" width="550" height="250" version="1.0"><defs id="defs4"><linearGradient id="linearGradient3569"><stop id="stop3571" offset="0" style="stop-color:#ff8f00;stop-opacity:.70807451"/><stop id="stop3573" offset="1" style="stop-color:#fc0;stop-opacity:0"/></linearGradient><linearGradient id="linearGradient3177"><stop style="stop-color:#fc0;stop-opacity:.66459626" id="stop3179" offset="0"/><stop style="stop-color:#fc0;stop-opacity:0" id="stop3181" offset="1"/></linearGradient><radialGradient id="radialGradient3204" cx="275" cy="182.215" r="270" fx="275" fy="182.215" gradientTransform="matrix(1.0524779,0.9019683,0.8111408,-0.9464941,-162.23373,21.1745)" gradientUnits="userSpaceOnUse" xlink:href="#linearGradient3177"/><radialGradient id="radialGradient3567" cx="248" cy="270" r="190" fx="248" fy="270" gradientTransform="matrix(1.6924598,0,0,3.6842106e-2,-144.73003,233.05263)" gradientUnits="userSpaceOnUse" xlink:href="#linearGradient3569"/></defs><metadata id="metadata7"/><g id="layer1"><path style="opacity:1;fill:#fff3b0;fill-opacity:.81199998;stroke:#000;stroke-width:3;stroke-linecap:round;stroke-linejoin:round;stroke-miterlimit:4;stroke-dasharray:none;stroke-dashoffset:0;stroke-opacity:.45600000000000002" id="rect3191" d="M 15,248 C 9.46,248 5,243.54 5,238 L 5,-2 C 5,-2.86562 5.10762,-3.7 5.3125,-4.5 L 544.6875,-4.5 C 544.89238,-3.7 545,-2.86563 545,-2 L 545,238 C 545,243.54 540.54,248 535,248 L 15,248 z"/><path id="path3196" d="M 15,248 C 9.46,248 5,243.54 5,238 L 5,-2 C 5,-2.86562 5.10762,-3.7 5.3125,-4.5 L 544.6875,-4.5 C 544.89238,-3.7 545,-2.86563 545,-2 L 545,238 C 545,243.54 540.54,248 535,248 L 15,248 z" style="opacity:1;fill:url(#radialGradient3204);fill-opacity:1;stroke:none;stroke-width:3;stroke-linecap:round;stroke-linejoin:round;stroke-miterlimit:4;stroke-dasharray:none;stroke-dashoffset:0;stroke-opacity:.6627451"/><rect style="opacity:1;fill:url(#radialGradient3567);fill-opacity:1;stroke:none;stroke-width:3;stroke-linecap:round;stroke-linejoin:round;stroke-miterlimit:4;stroke-dasharray:none;stroke-dashoffset:0;stroke-opacity:.66274509999999998" id="rect3559" width="538" height="14" x="6" y="236" rx="14.158" ry="7.778"/></g></svg>